<svg width="391" height="585" viewBox="0 0 391 585" fill="none" xmlns="http://www.w3.org/2000/svg">
<path d="M16.6631 -66.272C-5.12978 -205.313 32.7085 -193.272 66.2075 -226.272C99.7066 -259.272 191.707 -352.472 313.707 -361.272C435.707 -370.072 481.207 -296.938 488.707 -259.272C545.707 -207.105 687.407 -85.9718 798.207 -18.7718C936.707 65.2282 900.207 235.728 921.707 348.728C943.207 461.728 787.207 545.228 678.207 578.228C569.207 611.228 485.207 512.728 364.707 494.228C244.207 475.728 208.207 352.228 84.7073 290.728C-38.7927 229.228 9.16401 112.228 9.16401 112.228C9.16401 112.228 33.1631 39 16.6631 -66.272Z" fill="white" fill-opacity="0.1"/>
</svg>
