<svg width="356" height="584" viewBox="0 0 356 584" fill="none" xmlns="http://www.w3.org/2000/svg">
<path d="M-551.337 297.111C-573.13 158.07 -535.292 170.111 -501.793 137.111C-468.294 104.111 -376.293 10.911 -254.293 2.11097C-132.293 -6.68903 -133.301 9.19685 -79.2928 104.111C6.5 254.883 119.407 277.411 230.207 344.611C368.707 428.611 332.207 599.111 353.707 712.111C375.207 825.111 219.207 908.611 110.207 941.611C1.20709 974.611 -82.7927 876.111 -203.293 857.611C-323.793 839.111 -359.793 715.611 -483.293 654.111C-606.793 592.611 -558.836 475.611 -558.836 475.611C-558.836 475.611 -534.837 402.383 -551.337 297.111Z" fill="white" fill-opacity="0.1"/>
</svg>
