<svg width="512" height="491" viewBox="0 0 512 491" fill="none" xmlns="http://www.w3.org/2000/svg">
<path d="M331.287 5.1865C403.746 -8.47834 398.053 11.5314 415.877 28.5392C433.701 45.5469 504.371 53.3372 510.956 117.082C517.541 180.827 488.831 219.434 440.003 249.254C362.438 296.624 352.47 356.115 319.075 415.226C277.331 489.115 187.454 472.763 128.628 485.853C15 511.136 23.5479 418.603 4.50096 362.058C-14.546 305.512 35.6743 259.929 43.41 196.527C51.1456 133.125 115.235 112.272 145.44 46.6029C175.645 -19.0665 237.691 4.15136 237.691 4.15136C237.691 4.15136 276.427 15.5325 331.287 5.1865Z" fill="white" fill-opacity="0.1"/>
</svg>
