<svg width="565" height="106" viewBox="0 0 565 106" fill="none" xmlns="http://www.w3.org/2000/svg">
<path d="M30.3916 236.417C-15.9195 179.039 4.40296 174.591 10.9577 150.842C17.5125 127.094 -9.04943 61.1435 44 25.1916C97.0494 -10.7602 144.644 -3.72564 194.013 25.1914C272.435 71.1265 329.566 51.7711 397.442 53.2365C482.288 55.0681 510.391 141.99 549.748 187.629C589.104 233.268 540.196 312.02 499.385 355.546C458.573 399.073 394.657 376.386 335.137 399.558C275.617 422.73 226.93 376.125 154.785 380.573C82.6388 385.021 73.7488 319.372 73.7488 319.372C73.7488 319.372 65.4551 279.86 30.3916 236.417Z" fill="white" fill-opacity="0.1"/>
</svg>
